<?xml version="1.0" standalone="no"?>
<!DOCTYPE svg PUBLIC "-//W3C//DTD SVG 20010904//EN"
 "http://www.w3.org/TR/2001/REC-SVG-20010904/DTD/svg10.dtd">
<svg version="1.0" xmlns="http://www.w3.org/2000/svg"
 width="1758.000000pt" height="1758.000000pt" viewBox="0 0 1758.000000 1758.000000"
 preserveAspectRatio="xMidYMid meet">
<metadata>
Created by potrace 1.14, written by Peter Selinger 2001-2017
</metadata>
<g transform="translate(0.000000,1758.000000) scale(0.100000,-0.100000)"
fill="#000000" stroke="none">
<path d="M3540 17570 c-659 -35 -1313 -254 -1871 -626 -390 -261 -774 -644
-1033 -1033 -340 -511 -532 -1041 -613 -1691 -15 -124 -17 -536 -20 -5240 -4
-5171 -3 -5449 32 -5715 213 -1628 1469 -2938 3078 -3210 315 -53 -28 -50
5672 -50 5704 0 5378 -3 5690 50 1341 229 2464 1189 2906 2483 100 293 167
624 189 937 8 106 10 1698 8 5415 l-4 5265 -22 151 c-88 606 -271 1099 -587
1579 -415 630 -995 1112 -1694 1405 -312 131 -660 220 -1043 267 -134 16 -455
18 -5343 19 -2860 1 -5265 -2 -5345 -6z m5462 -2034 c340 -86 599 -337 704
-681 26 -83 28 -103 28 -265 1 -152 -2 -186 -22 -260 -92 -341 -360 -606 -711
-702 -103 -29 -361 -31 -465 -5 -185 47 -324 125 -462 262 -154 153 -237 306
-280 516 -25 123 -16 334 20 453 114 380 428 651 818 706 98 14 264 3 370 -24z
m-51 -3107 c46 -11 129 -42 184 -69 228 -108 3971 -2113 4036 -2160 212 -158
345 -402 369 -678 15 -164 79 -4280 68 -4378 -14 -138 -80 -315 -161 -433 -47
-68 -156 -179 -222 -226 -82 -58 -3869 -2239 -3971 -2286 -214 -101 -465 -114
-694 -35 -71 24 -598 300 -2080 1090 -1092 582 -2012 1078 -2045 1101 -69 49
-187 169 -232 235 -73 108 -132 257 -152 387 -12 80 -86 4289 -77 4415 18 264
165 529 378 686 73 53 3929 2274 4003 2305 183 77 403 94 596 46z"/>
<path d="M10989 6397 c-130 -44 -193 -106 -275 -268 -316 -630 -860 -1037
-1549 -1156 -141 -24 -509 -24 -650 0 -448 78 -840 280 -1152 594 -159 160
-280 330 -397 560 -46 90 -69 123 -121 171 -91 85 -148 106 -290 107 -106 0
-113 -1 -180 -34 -131 -65 -221 -186 -244 -328 -19 -119 8 -211 121 -418 310
-564 803 -1022 1382 -1282 768 -346 1652 -344 2422 4 318 145 598 339 854 593
207 205 378 431 512 675 120 219 151 322 131 441 -45 264 -314 426 -564 341z"/>
</g>
</svg>
