<?xml version="1.0" encoding="UTF-8"?>
<svg id="Layer_1" data-name="Layer 1" xmlns="http://www.w3.org/2000/svg" xmlns:xlink="http://www.w3.org/1999/xlink" viewBox="0 0 421.58 421.58">
  <defs>
    <style>
      .cls-1 {
        fill: #121133;
      }

      .cls-1, .cls-2, .cls-3 {
        stroke-width: 0px;
      }

      .cls-2 {
        fill: #c20840;
        filter: url(#drop-shadow-1);
      }

      .cls-3 {
        fill: #fff;
      }
    </style>
    <filter id="drop-shadow-1" filterUnits="userSpaceOnUse">
      <feOffset dx="0" dy="6.48"/>
      <feGaussianBlur result="blur" stdDeviation="18.5"/>
      <feFlood flood-color="#9e9e9e" flood-opacity=".26"/>
      <feComposite in2="blur" operator="in"/>
      <feComposite in="SourceGraphic"/>
    </filter>
  </defs>
  <rect class="cls-2" width="421.58" height="421.58" rx="89.8" ry="89.8"/>
  <g>
    <g>
      <rect class="cls-1" x="204.32" y="93.94" width="11.37" height="63.29"/>
      <circle class="cls-3" cx="210.01" cy="71.7" r="23.68"/>
    </g>
    <path class="cls-3" d="m324.94,194.69c-.14-8.31-4.77-15.88-12.1-19.79l-92.98-49.56c-6.95-3.7-15.33-3.56-22.15.37l-91.29,52.6c-7.2,4.14-11.58,11.87-11.44,20.17l1.65,100.58c.14,8.3,4.77,15.88,12.11,19.78l92.97,49.56c6.96,3.71,15.33,3.57,22.16-.37l91.29-52.59c7.19-4.15,11.57-11.87,11.44-20.18l-1.66-100.57Zm-48.75,87.59c-11.15,24.38-35.75,41.36-64.27,41.36s-52.97-16.88-64.17-41.14c-.64-1.39-.94-2.85-.94-4.29,0-3.58,1.87-7.05,5.14-8.96,5.23-3.05,12-.98,14.52,4.52,7.9,17.23,25.3,29.21,45.45,29.21s37.66-12.06,45.52-29.37c1.72-3.8,5.46-5.97,9.33-5.97,1.77,0,3.56.45,5.21,1.41,4.58,2.68,6.42,8.4,4.21,13.23Z"/>
  </g>
</svg>